# xmcd CD database file
#
# Track frame offsets:
#	150
#	13692
#	24107
#	36566
#	50155
#	62028
#	73305
#	83947
#	94536
#	105804
#	123762
#	133768
#	146455
#	162258
#	180400
#
# Disc length: 2584 seconds
#
# Revision: 0
# Processed by: cddbd v1.5.2PL0 Copyright (c) Steve Scherf et al.
# Submitted via: CDex 1.70beta2
#
DISCID=c40a160f
DTITLE=Piticco, Steve and Spike - Cdn. - OVM - Me and You
DYEAR=1900
DGENRE=Country
TTITLE0=Me and God
TTITLE1=I Don't Care
TTITLE2=A Thing Called Love
TTITLE3=Don't Touch Me
TTITLE4=Send Me the Pillow
TTITLE5=You Ain't Woman Enough
TTITLE6=Slowly But Surely
TTITLE7=Blackberry Blossom
TTITLE8=My Heart Skips A Beat
TTITLE9=How Great Thou Art
TTITLE10=I Love
TTITLE11=I Wouldn't Want To Live
TTITLE12=I'm No Lisa
TTITLE13=Amazing Grace
TTITLE14=Farewell Party
EXTD=
EXTT0=
EXTT1=
EXTT2=
EXTT3=
EXTT4=
EXTT5=
EXTT6=
EXTT7=
EXTT8=
EXTT9=
EXTT10=
EXTT11=
EXTT12=
EXTT13=
EXTT14=
PLAYORDER=
